<svg version="1.1" id="Layer_1" xmlns="http://www.w3.org/2000/svg" xmlns:xlink="http://www.w3.org/1999/xlink" x="0px" y="0px"
	 width="100%" viewBox="0 0 976 976" enable-background="new 0 0 976 976" xml:space="preserve">
<path fill="#000000" opacity="1.000000" stroke="none" 
	d="
M409.647003,633.999878 
	C409.646851,567.578491 409.646851,501.657074 409.646851,435.942719 
	C412.464386,435.038696 413.859772,436.513916 415.382202,437.387421 
	C423.039062,441.780548 430.550140,446.440887 438.329376,450.601807 
	C442.092773,452.614777 443.306824,455.172119 443.298676,459.335968 
	C443.187256,516.321533 443.220215,573.307373 443.255035,630.293152 
	C443.256531,632.732361 442.750549,635.247070 444.104828,638.437805 
	C496.544342,608.156006 548.803467,577.978394 600.996582,547.838928 
	C600.702637,545.398499 598.828369,545.076599 597.505188,544.306702 
	C579.797546,534.003235 562.012878,523.830811 544.374268,513.411072 
	C540.782104,511.289124 537.997925,511.214050 534.334351,513.372253 
	C516.254333,524.023010 498.013214,534.400696 479.806976,544.836426 
	C478.402222,545.641602 477.155487,546.936035 475.303772,546.752991 
	C473.496918,545.672302 473.913971,543.858826 473.905762,542.263062 
	C473.857849,532.932312 474.007629,523.598206 473.797333,514.271790 
	C473.714203,510.585571 475.232086,508.538116 478.312683,506.769684 
	C517.317078,484.379120 556.267212,461.893951 595.222900,439.418518 
	C597.223267,438.264374 599.148560,436.980194 602.157104,435.102234 
	C537.585876,397.800171 473.772522,360.935913 409.986755,324.087616 
	C411.324768,321.170746 413.396179,320.611542 415.053680,319.628326 
	C420.640259,316.314484 426.717560,313.678009 431.849792,309.784180 
	C439.150330,304.245331 445.094055,305.082611 452.879791,309.638062 
	C512.684326,344.630005 572.778015,379.127991 632.821411,413.710876 
	C635.752136,415.398865 637.137512,417.407715 637.078674,420.861603 
	C636.916992,430.356476 636.901611,439.858215 637.084290,449.352325 
	C637.154358,452.997498 635.755554,455.047852 632.596069,456.838348 
	C614.194519,467.266663 595.913208,477.907349 577.598999,488.489441 
	C576.609192,489.061371 575.688171,489.752167 574.553162,490.508972 
	C575.586609,493.531586 578.394714,494.189850 580.550598,495.443726 
	C597.972168,505.576416 615.408386,515.685486 632.940063,525.625549 
	C635.947449,527.330688 637.156677,529.325928 637.091187,532.759216 
	C636.913269,542.086670 636.903381,551.423096 637.115967,560.749390 
	C637.202393,564.540894 635.911743,566.727844 632.538452,568.667297 
	C573.193054,602.786865 513.781799,636.798035 454.794861,671.528992 
	C445.500183,677.001770 438.503815,678.228821 429.997772,671.269226 
	C425.546112,667.627075 420.104492,665.111023 414.904449,662.494812 
	C411.003540,660.532227 409.276520,658.002747 409.552307,653.490540 
	C409.937927,647.181946 409.648041,640.832153 409.647003,633.999878 
z"/>
<path fill="#000000" opacity="1.000000" stroke="none" 
	d="
M414.034424,401.030823 
	C402.380951,394.303741 391.045044,387.759735 378.533203,380.536896 
	C378.533203,467.767181 378.533203,553.597839 378.533203,639.028503 
	C375.927795,640.519409 374.607635,639.155579 373.249481,638.381592 
	C365.146118,633.763184 357.129547,628.989929 348.973511,624.467651 
	C345.994812,622.815918 344.803131,620.724426 344.806000,617.285339 
	C344.876343,533.142761 344.874512,449.000031 344.795502,364.857452 
	C344.792236,361.393982 346.044342,359.397034 349.019806,357.745941 
	C357.464661,353.060028 365.825623,348.213043 374.082336,343.203186 
	C376.963867,341.454803 379.234985,341.902924 381.925964,343.466400 
	C404.680786,356.687042 427.485046,369.822754 450.276703,382.980011 
	C478.550079,399.301819 506.829742,415.612762 535.088867,431.959198 
	C536.600952,432.833771 538.634583,433.154175 539.234375,435.310577 
	C538.291870,437.875885 535.601562,438.007050 533.700073,439.143036 
	C526.408936,443.499023 518.876892,447.466248 511.719025,452.024811 
	C508.218231,454.254395 505.584167,453.956635 502.169464,451.969177 
	C472.948669,434.961884 443.636658,418.111328 414.034424,401.030823 
z"/>
</svg>